<?xml version="1.0" encoding="utf-8"?>
<!-- Generator: Adobe Illustrator 26.0.3, SVG Export Plug-In . SVG Version: 6.00 Build 0)  -->
<svg version="1.1" id="Layer_1" xmlns="http://www.w3.org/2000/svg" xmlns:xlink="http://www.w3.org/1999/xlink" x="0px" y="0px"
	 viewBox="0 0 1178.22 371.11" style="enable-background:new 0 0 1178.22 371.11;" xml:space="preserve">
<g>
	<path d="M417.46,253.57c-1.46-0.54-2.81,0.72-4.07,2.18c-1.7,1.69-3.82,3.5-6.32,5.37c-2.52,1.89-5.38,3.72-8.52,5.44
		c-7.3,4.04-13.4,6.09-18.11,6.09c-5.48,0-7.92-2.67-7.92-8.64c0-0.78,0.04-1.58,0.12-2.4c0.05-0.59,0.13-1.24,0.22-1.94
		c8.5-2.22,15.25-6.28,20.1-12.1c2.78-3.48,4.19-7.04,4.19-10.59c0-5.79-3.19-8.99-8.98-8.99c-4.08,0-8.56,2.25-13.35,6.69
		c-3.82,3.65-7.09,8.31-9.73,13.84c-0.91,1.91-1.65,3.69-2.25,5.36c-0.16-0.04-0.33-0.06-0.5-0.06c-1.27,0-2.47,0.67-3.54,1.96
		c-1.07,1.22-2.31,2.42-3.69,3.58c-1.44,1.2-2.97,2.44-4.51,3.68c-3.9,2.85-7.18,4.3-9.74,4.3c-1.57,0-2.7-1.68-3.34-5l-1.2-11.78
		c-0.73-6.29-3.71-7.61-6.08-7.61c-4.27,0-9.64,2.8-16.48,8.62c-2.56,2.4-4.74,4.53-6.46,6.34c-1.22,1.28-2.37,2.46-3.43,3.55
		c0.99-3.45,2.12-6.77,3.38-9.92c1.87-4.67,3.91-9.08,6.07-13.12c22.36-19.18,36.01-36.24,40.55-50.68
		c1.02-2.88,1.53-5.57,1.53-7.98c0-8.03-5.02-9.23-8.02-9.23c-2.34,0-4.61,0.53-6.81,1.56c0.06-0.34,0.1-0.68,0.1-1.03
		c0-1.94-1.16-3.19-2.95-3.19c-1.28,0-2.24,0.72-2.61,1.92c-0.74,1.4-3.57,3.63-14.05,3.63c-5.4,0-11.14-0.4-17.07-1.19
		c-5.34-0.71-10.85-1.82-16.39-3.31c2.59-4.39,4.89-7.81,6.81-10.14c4.82-5.38,7.7-6.5,9.27-6.5c1.12,0,2.12,0.2,2.12,2.6v0.97
		c0,2.57,1.24,2.95,1.98,2.95c1.8,0,2.71-1.56,2.71-4.64c0-2.01-0.76-3.79-2.25-5.28c-1.49-1.49-3.35-2.25-5.53-2.25
		c-5.32,0-10.27,1.86-14.72,5.54c-4.09,3.39-7.92,8.11-11.39,14.06l-20.87-4.61c-1.12-6.28-3.74-11.31-7.8-14.96
		c-4.29-3.86-9.42-5.82-15.25-5.82c-9.54,0-18.44,4.45-26.46,13.24c-7.13-0.45-13.9-0.68-20.14-0.68c-9.31,0-17.59,0.65-24.87,1.94
		c-0.14-0.34-0.29-0.68-0.5-1.01c-0.35-0.55-0.68-1.11-1.02-1.67c-0.27-0.45-0.54-0.91-0.82-1.36c-0.82-1.33-1.79-2.58-2.85-3.71
		c-0.71-0.74-1.6-1.29-2.66-1.63c-0.12-0.04-0.24-0.07-0.36-0.1c0-0.03-0.01-0.07-0.01-0.1l0.1,0.01c0.73,0.1,1.45,0.2,2.18,0.32
		c1.13,0.19,2.12,0.4,2.74,1.09c0.07,0.08,0.2,0.2,0.28,0.26c0.65,0.51,1.25,0.55,1.64,0.51c0.39-0.05,0.96-0.24,1.45-0.88
		c0.79-1.02,1.46-2.22,2.05-3.66c0.16-0.39,0.26-0.82,0.3-1.23c0.02-0.23,0.05-0.45,0.08-0.67c0.07-0.52,0.15-1.11,0.12-1.74
		c-0.02-0.53-0.01-1.06,0-1.59l0-0.32c0.02-1.74-0.24-3.51-0.77-5.26c-0.46-1.52-1.19-2.87-2.16-4.01c0.8-0.12,1.62-0.3,2.48-0.53
		c1.78-0.49,3.64-1.2,5.86-2.22c1.58-0.73,3.1-1.58,4.56-2.4l0.87-0.49c0.77-0.43,1.55-0.87,2.32-1.3c1.64-0.93,3.34-1.89,5.03-2.78
		c1.4-0.74,2.84-1.25,4.39-1.54c1.65-0.31,3.01-0.28,4.3,0.09c1.8,0.53,3.07,1.27,3.97,2.33c0.41,0.48,0.78,0.92,1.08,1.36
		c0.71,1.05,1.02,2.2,0.92,3.51c-0.08,1.04-0.41,2.05-1.02,3.09c-1.34,2.28-3.35,3.92-6.16,5.02c-0.76,0.3-1.57,0.51-2.56,0.74
		c-1.68,0.38-3.37,0.36-5.01-0.08c-0.12-0.03-0.15-0.04-0.22-0.2c-0.19-0.41-0.28-0.88-0.31-1.53c-0.02-0.41-0.04-0.98-0.24-1.56
		c-0.3-0.88-0.92-1.57-1.77-2c-1.07-0.53-2.31-0.3-3.04,0.56c-0.91,1.09-1.3,2.19-1.2,3.37c0.15,1.57,0.76,2.9,1.83,3.95
		c1.01,0.99,2.25,1.68,3.79,2.12c2.24,0.63,4.52,0.72,6.76,0.27c3.08-0.63,5.44-1.56,7.43-2.94c2.34-1.62,4.04-3.47,5.19-5.65
		c1.13-2.13,1.6-4.2,1.44-6.31c-0.14-1.86-0.7-3.51-1.64-4.91c-0.61-0.91-1.32-1.78-2.12-2.58c-0.67-0.68-1.42-1.26-2.21-1.71
		c-2.68-1.54-5.46-2.19-8.25-1.94c-0.82,0.07-1.6,0.23-2.36,0.38l-0.24,0.05c-1.7,0.33-3.38,0.97-5.14,1.96
		c-1.59,0.89-3.17,1.79-4.76,2.69l-3.7,2.11c-1.7,0.98-3.46,1.99-5.25,2.81c-1.91,0.87-3.97,1.75-6.13,2.2
		c-1.16,0.24-2.12,0.32-3.03,0.25c-0.34-0.03-0.44-0.11-0.48-0.15c-0.09-0.08-0.25-0.23-0.5-0.36c-0.52-0.27-1.14-0.25-1.62,0.04
		c-0.06,0.04-0.12,0.07-0.17,0.12c-0.31-0.09-0.67-0.18-1.08-0.19c0.11-0.23,0.2-0.45,0.29-0.66c0.43-1.02,0.52-2.1,0.26-3.2
		c-0.3-1.26-0.79-2.89-2.02-4.29c-0.09-0.1-0.17-0.2-0.25-0.31c-0.08-0.1-0.16-0.21-0.25-0.31l-3.18-3.82
		c-0.87-1.05-1.63-2.23-2.25-3.52c-0.75-1.55-1.1-3.21-1.05-4.92c0.04-1.32,0.25-2.62,0.62-3.85c0.6-2,1.43-3.89,2.48-5.62
		c1.69-2.81,3.85-5.36,6.41-7.56c2.22-1.91,4.46-3.33,6.85-4.37c3.56-1.53,6.93-2.07,10.28-1.65c3.11,0.39,5.84,1.61,8.13,3.62
		c1.5,1.32,2.45,2.81,2.88,4.55c0.02,0.1,0.03,0.19,0,0.35c-0.19,1.05-0.46,2.07-0.67,2.84c-0.25,0.9-0.67,1.55-1.33,2.05
		c-0.78,0.59-1.53,1.31-2.21,2.13c-0.26,0.31-0.55,0.68-0.77,1.16c-0.49,1.06-0.41,2.29,0.2,3.29c0.61,0.99,1.67,1.6,2.83,1.64
		c0.94,0.02,1.87-0.27,2.71-0.89c0.7-0.52,1.31-1.17,1.82-1.95c1.07-1.63,1.84-3.46,2.29-5.42c0.47-2.09,0.49-4.14,0.04-6.08
		c-0.68-2.97-2.37-5.56-5-7.7c-2.23-1.81-4.83-3.09-7.72-3.81c-3.17-0.79-6.54-0.83-10.02-0.11c-3.08,0.63-6.11,1.87-9.02,3.68
		c-2.87,1.78-5.49,4.02-7.81,6.65c-2.68,3.05-4.64,6.19-5.97,9.6c-0.98,2.5-1.49,4.85-1.58,7.16c-0.09,2.63,0.45,5.16,1.61,7.52
		c0.82,1.65,1.91,3.27,3.43,5.09c0.55,0.65,1.09,1.31,1.63,1.97c0.46,0.55,0.92,1.11,1.38,1.66c0.34,0.41,0.59,0.88,0.76,1.44
		l0.06,0.2c0.11,0.35,0.23,0.76,0.23,0.85c-0.01,0.11-0.2,0.56-0.39,1.01c-0.18,0.42-0.36,0.79-0.56,1.11
		c-0.27-0.87-0.76-1.66-1.46-2.21c-0.32-0.25-0.66-0.5-1.01-0.72c-0.52-0.32-1.04-0.64-1.57-0.96c-0.44-0.27-0.89-0.54-1.33-0.81
		c-0.36-0.22-0.67-0.52-0.92-0.87c-0.08-0.11-0.17-0.29-0.15-0.66c0.01-0.23,0.04-0.31,0.04-0.31v0c0.26-0.24,0.39-0.5,0.47-0.67
		c0.34-0.73,0.22-1.57-0.32-2.17c-0.64-0.73-1.66-0.86-2.47-0.33c-0.14,0.09-0.28,0.18-0.42,0.26c-0.18,0.11-0.36,0.22-0.55,0.35
		c-0.23-0.57-0.42-1.14-0.58-1.66c-0.6-1.92-1.25-4.2-1.54-6.56l-0.08-0.64c-0.1-0.72-0.19-1.39-0.19-2.05l0-1.73
		c0-1.96,0-3.91,0.02-5.87c0-0.94,0.04-1.94,0.1-3.06c0.07-1.32,0.2-2.69,0.38-4.08c0.09-0.72,0.2-1.44,0.3-2.15l0.14-1
		c0.03-0.22,0.09-0.63-0.02-1.09l0.1-0.47c0.2-0.95,0.41-1.9,0.61-2.86l0.09-0.42c0.1-0.45,0.22-0.95,0.25-1.49
		c0.02-0.3,0.06-0.6,0.09-0.9c0.07-0.62,0.16-1.32,0.11-2.12c0.15-0.53,0.15-1.01,0.15-1.4l0-6.39c0,0,0-0.1,0-0.1
		c0.01-0.21,0.02-0.52-0.08-0.87c-0.07-0.24-0.07-0.56-0.07-0.92c0-0.15,0-0.3-0.01-0.45v-0.23c0-0.25,0.01-0.55-0.05-0.89
		c-0.1-0.6-0.17-1.22-0.23-1.88c-0.06-0.56-0.11-1.12-0.19-1.68c-0.07-0.45-0.13-0.9-0.19-1.36c-0.1-0.75-0.21-1.5-0.33-2.25
		c-0.36-2.18-0.79-4.18-1.32-6.11c-0.74-2.71-1.72-5.05-3-7.14l-0.1-0.16c-0.58-0.95-1.17-1.93-2.03-2.8
		c-0.32-0.32-0.63-0.66-0.93-0.99c-0.56-0.61-1.14-1.24-1.8-1.82l-0.12-0.2c-0.08-0.15-0.17-0.29-0.27-0.43
		c-0.58-0.77-1.28-1.52-2.21-2.38c-0.4-0.37-0.87-0.71-1.4-1.02c-0.22-0.13-0.38-0.25-0.52-0.41c-0.79-0.89-1.74-1.85-3.16-2.26
		c-0.08-0.07-0.16-0.13-0.25-0.2c-2-1.5-4.21-2.51-6.43-3.53c-1.94-0.89-3.94-1.74-5.86-2.56l-1.15-0.49
		c-3.12-1.33-6.32-2.43-9.51-3.25c-1.99-0.52-4.06-0.97-6.15-1.36c-1.65-0.3-3.56-0.65-5.5-0.85c-0.3-0.03-0.6-0.05-0.9-0.08
		c-0.32-0.02-0.65-0.05-0.97-0.09c-1.49-0.18-2.96-0.23-4.34-0.27c-1.77-0.05-3.41-0.02-5.03,0.1c-1.37,0.1-2.81,0.24-4.42,0.42
		c-1.02,0.12-2.03,0.27-3.04,0.42l-1.26,0.19c-2.03,0.3-3.88,0.66-5.66,1.11c-3.69,0.94-7.57,2.18-11.88,3.82
		c-2.26,0.86-4.28,1.98-6.02,3.35l-0.16,0.13c-0.62,0.49-1.33,1.04-1.88,1.84c-0.94,1.36-1.2,2.79-0.78,4.25
		c0.2,0.69,0.5,1.32,0.88,1.86c0.53,0.75,0.99,1.38,1.49,2c0.71,0.88,1.43,1.74,2.14,2.61c0.83,1,1.65,2,2.47,3.01
		c0.64,0.79,1.25,1.57,1.76,2.38c1.15,1.85,2.09,3.85,2.87,6.12c0.37,1.07,0.73,2.13,1.09,3.2l0.69,2.04
		c0.76,2.24,1.51,4.64,1.77,7.12l0.12,1.09c0.14,1.24,0.28,2.52,0.35,3.77c0.03,0.44,0.06,0.88,0.09,1.31
		c0.07,0.93,0.14,1.82,0.12,2.69c-0.01,0.17,0,0.34,0.01,0.51l0.01,0.09l0,0.35c-0.01,0.46-0.01,0.92-0.02,1.38l0,0.15
		c0,0.06,0,0.12,0.01,0.13c-0.15,0.54-0.16,1.04-0.15,1.42c0.01,0.37-0.04,0.77-0.09,1.19c-0.06,0.5-0.13,1.07-0.11,1.67
		c0,0.03-0.01,0.05-0.01,0.06c-0.03,0.25-0.06,0.49-0.09,0.74c-0.08,0.62-0.17,1.25-0.18,1.92c-0.01,0.37-0.06,0.73-0.1,1.09
		c-0.06,0.53-0.13,1.09-0.12,1.69c0,0.11-0.03,0.22-0.04,0.34c-0.04,0.24-0.09,0.53-0.09,0.87c0.01,2.17,0.01,4.33,0.01,6.5l0,2.68
		c-0.01,0.18-0.02,0.46,0.07,0.79c0.11,0.43,0.12,0.95,0.14,1.49c0.01,0.47,0.02,0.95,0.09,1.46c0.06,0.41,0.1,0.82,0.14,1.23
		c0.07,0.68,0.15,1.39,0.28,2.09c0.3,1.68,0.75,3.33,1.15,4.71c0.21,0.72,0.42,1.43,0.64,2.14c0.17,0.55,0.34,1.11,0.5,1.66
		c0.63,2.12,1.2,4.03,1.93,5.92c0.25,0.66,0.56,1.32,0.93,2.03c0.34,0.64,0.71,1.29,1.15,1.97l0.19,0.3
		c0.53,0.82,1.08,1.67,1.73,2.48c0.2,0.25,0.41,0.48,0.62,0.71c0.21,0.22,0.41,0.44,0.59,0.68c0.04,0.06,0.09,0.12,0.13,0.17
		c-1.83-0.07-3.72,0.06-5.76,0.41c-1.97,0.34-3.98,0.89-6.14,1.68c-1.87,0.69-3.47,1.56-4.88,2.66c-1.9,1.47-3.42,2.92-4.66,4.43
		c-1.84,2.23-2.58,4.66-2.22,7.24c-1.19,0.45-2.26,0.95-3.27,1.52c-0.52,0.3-1.06,0.57-1.59,0.85c-0.41,0.21-0.83,0.43-1.24,0.65
		c-1.85,1-3.78,2.18-5.39,3.95l-0.94,1.04c-1.72,1.88-3.09,4.11-4.2,6.83c-0.38,0.94-0.64,1.96-0.78,3.1
		c-0.19,1.5-0.24,3.09-0.16,4.73c0.06,1.11,0.2,2.11,0.44,3.07c0.5,2,1.29,3.67,2.42,5.09c-0.22,0.41-0.44,0.85-0.65,1.32
		c-1.21,2.77-1.29,5.66-0.25,8.6c0.38,1.07,0.93,2.42,1.89,3.62c-0.47,0.9-0.89,1.86-1.24,2.87c-1.2,3.43-1.91,6.57-2.19,9.61
		c-0.21,2.3-0.17,4.65,0.09,6.99c0.19,1.63,0.53,3.3,1.02,4.95c0.96,3.2,2.2,5.84,3.79,8.05c1.28,1.78,2.46,3.12,3.72,4.22
		c1.09,0.95,2.21,1.79,3.17,2.48c2.29,1.65,4.84,2.85,7.59,3.54c2.25,0.57,4.37,1,6.46,1.32c1.26,0.19,2.92,0.41,4.66,0.42
		c0.13,0,0.26,0,0.39,0c1.96,0,3.79-0.11,5.58-0.33c2-0.25,3.61-0.49,5.08-0.77c4.81-0.91,9.42-2.2,13.69-3.82
		c3.27-1.24,5.7-2.38,7.88-3.69c3.19-1.92,5.68-4.15,7.62-6.79c1.35-1.84,2.35-3.92,2.98-6.19c0.45-1.61,0.62-3.32,0.54-5.54
		c-0.07-1.98-0.59-3.76-1.54-5.3c-0.83-1.33-1.78-2.28-2.91-2.91c-1.95-1.07-4.11-1.33-6.25-0.74c-2.4,0.66-3.98,2.39-4.45,4.87
		c-0.43,2.26,0.31,4.29,2.14,5.85c0.03,0.02,0.05,0.04,0.08,0.06c0,0.01,0,0.03-0.01,0.04c-0.01,0.07-0.03,0.14-0.06,0.22
		c-0.22,0.79-0.54,1.44-0.97,2.01c-0.62,0.81-1.35,1.55-2.17,2.21c-0.92,0.73-2.01,1.43-3.32,2.14c-4.84,2.61-9.79,4.52-14.71,5.7
		c-2.51,0.6-4.73,0.97-6.78,1.15c-2,0.17-3.83,0.12-5.58-0.16c-1.61-0.26-3.35-0.61-5.31-1.08c-1.37-0.33-2.59-0.86-3.72-1.64
		c-0.57-0.39-1.24-0.85-1.88-1.34c-1.75-1.35-3.14-3.04-4.12-5c-1.42-2.82-2.14-5.87-2.19-9.32c0-0.37,0.03-0.74,0.06-1.1
		c0.02-0.26,0.05-0.52,0.06-0.78c0.04-0.78,0.17-1.57,0.3-2.37c0.06-0.36,0.2-0.7,0.42-1.06l0.24-0.38c0.26-0.41,0.53-0.83,0.77-1.3
		c1.12-2.26,2.62-4.29,4.08-6.14c0.2-0.26,0.41-0.49,0.62-0.7c0.15,0.19,0.31,0.38,0.49,0.56c1.6,1.67,3.51,3.03,5.68,4.04
		c3.22,1.5,6.58,2.23,9.95,2.16c0.95-0.02,1.9-0.09,2.82-0.22c1.59-0.22,2.99-0.65,4.26-1.32c1.92-1.01,3.73-2.26,5.51-3.84
		c0.8-0.71,1.93-1.84,2.5-3.5c0,0,0.01,0,0.02-0.01c0.77-0.48,1.53-0.98,2.27-1.5l0.11-0.08c0.79-0.55,1.61-1.12,2.33-1.92
		c0.89-0.99,1.66-1.93,2.35-2.89c0.56-0.78,0.88-1.62,1.07-2.18c0.1-0.29,0.19-0.59,0.28-0.88c0.05-0.17,0.11-0.35,0.16-0.52
		c0.13,0.05,0.25,0.1,0.38,0.15c-0.14,0.29-0.28,0.59-0.41,0.89c-0.86,1.99-1.6,4.05-2.28,6.3c-0.67,2.24-1.1,4.5-1.47,6.59
		c-0.24,1.05,0.36,1.77,1.06,2.03c0.56,0.2,1.22,0.02,1.64-0.41c0.09-0.1,0.17-0.19,0.24-0.28c0.86-1.27,1.92-2.76,3.2-4.11
		c0.67-0.71,1.31-1.31,1.96-1.83c1.92-1.53,4.14-2.79,6.79-3.85c1.71-0.68,3.49-1.3,5.21-1.91c0.84-0.29,1.68-0.59,2.52-0.89
		l0.6-0.22c2.53-0.91,5.15-1.86,7.68-3.02c2.21-1.02,4.3-2.15,6.21-3.36c2.8-1.77,5.51-3.75,8.3-6.05c1.49-1.23,2.92-2.51,4.27-3.82
		c0.05,1.07,0.02,2.19-0.08,3.36c-0.14,1.53-0.29,3.05-0.44,4.58c-0.11,1.13-0.22,2.26-0.33,3.4c-0.01,0.15-0.04,0.19-0.05,0.21
		l-0.09,0.13c-0.18,0.25-0.42,0.59-0.57,1.03c-0.05,0.16-0.18,0.33-0.4,0.57c-0.47,0.53-0.77,1.11-1,1.61
		c-0.39,0.82-0.21,1.72,0.45,2.3c0.24,0.21,0.53,0.34,0.82,0.41c-0.97,2.74-1.6,5.68-1.86,8.84c-0.85,8.51,2.4,16.24,9.64,22.97
		c6.28,5.95,13.74,9.98,22.16,11.96c3.96,0.99,7.66,1.49,10.99,1.49c4.23,0,7.69-0.62,10.29-1.83c1.87-0.86,4.01-2.1,4.01-4.02
		c0-1.11-0.76-2.22-2.47-2.22c-1.05,0-2.93,0.24-5.72,0.73l-5.11,0.23c-3.37-0.31-6.95-1.14-10.64-2.45
		c-3.74-1.32-7.61-3.26-11.55-5.78c-9.29-5.63-14.01-12.19-14.01-19.48c0-16.15,19.4-24.33,57.66-24.33h6.04
		c1.22,0,2.47,0.03,3.73,0.09c-5.35,9.33-9.05,20.23-11,32.41c-0.98,5.06-1.48,10.6-1.48,16.46c0,21.13,4.82,38.41,14.33,51.39
		c-7.02,8.62-13.36,15.31-18.86,19.89c-0.03,0.03-0.06,0.05-0.09,0.08c-0.32,0.31-0.69,0.87-0.69,1.8c0,1.87,1.24,2.71,2.47,2.71
		c0.75,0,1.32-0.46,1.72-0.86c5.52-4.91,11.78-11.58,18.6-19.82c0.73,0.81,1.48,1.63,2.24,2.45c0.77,0.83,1.59,1.61,2.45,2.34
		c-15.75,14.96-30.33,22.54-43.36,22.54c-5.11,0-9.02-1.44-11.98-4.39c-2.3-2.3-3.42-5.35-3.42-9.32c0-6.19,2.19-11.02,6.7-14.78
		c0.03-0.03,0.07-0.06,0.1-0.09c1.09-1.09,1.65-2.26,1.65-3.47c0-1.87-1.24-2.71-2.47-2.71c-1.07,0-2.13,0.54-3.16,1.58
		c-6.91,6.06-10.41,13.43-10.41,21.89c0,5.7,1.94,10.52,5.75,14.34c3.98,3.98,9.78,5.99,17.24,5.99c20.64,0,39.86-8.06,57.13-23.96
		c4.03,1.16,8.04,1.75,11.92,1.75c2.96,0,6.04-0.25,9.23-0.75c2.57-0.51,5.77-1.74,9.77-3.74c5.43-2.62,7.85-4.9,7.85-7.39
		c0-1.47-0.99-2.47-2.47-2.47c-0.73,0-1.41,0.31-2.02,0.92c-0.06,0.06-0.12,0.13-0.17,0.2c-0.99,1.41-2.89,2.88-5.64,4.37
		c-2.83,1.53-5.64,2.53-8.35,2.98c-5.93,0.99-11.14,0.9-15.91-0.07c2.12-2.21,4.2-4.52,6.2-6.9c2.58-3.07,5.21-6.43,7.78-9.97
		c4.19-5.64,8.73-12.55,13.48-20.53c4.76-7.99,9.54-17.34,14.21-27.8l16.38-36.5c6.19,1.62,12.36,2.94,18.35,3.93
		c6.4,1.06,12.77,1.59,18.96,1.59c3.38,0,6.95-0.78,10.61-2.29c-0.58,0.75-1.15,1.53-1.71,2.36c-3.08,4.54-6.57,10.57-10.35,17.9
		c-3.79,7.34-7.99,16.27-12.48,26.53c-3.54,8.21-6.63,15.53-9.19,21.76c-2.58,6.29-4.55,11.79-5.84,16.32
		c-0.52,1.74-0.79,3.51-0.79,5.26c0,6.14,3.06,7.05,4.88,7.05c1.63,0,3.42-0.73,5.47-2.22c0.13-0.09,0.24-0.21,0.34-0.34
		c0.8-1.12,1.64-2.28,2.53-3.49c0.89-1.21,1.73-2.38,2.51-3.47c3.61-4.71,6.93-8.28,9.8-10.54c2.88-1.98,4.54-2.39,5.43-2.39
		c0.47,0,1.88,0,3.17,2.86l2.87,10.76c1.48,5.38,4.16,8.1,7.97,8.1c6.75,0,14.98-4.85,25.1-14.81c-0.02,0.33-0.04,0.67-0.04,0.99
		c0,11.09,5.36,16.95,15.5,16.95c6.81,0,14.69-2.33,23.39-6.93c4.08-2.12,7.61-4.32,10.49-6.54c2.87-2.22,5.25-4.43,7.07-6.57
		c0.89-0.91,1.36-2.01,1.36-3.19C418.89,254.84,418.41,253.92,417.46,253.57z M387.35,243.48c-2.28,4.06-6.33,7.31-12.06,9.69
		c1.13-2.35,2.43-4.67,3.88-6.94c2.11-3.29,4.29-6.09,6.46-8.34c2.73-2.82,3.93-3.04,4.23-3.08c0,0,0.2,0.26,0.2,1.2
		C390.06,237.98,389.15,240.48,387.35,243.48z M192.77,206.92c0.25-2.93,0.53-5.76,0.83-8.31c2.3-12.88,6.05-23.64,11.15-32.02
		c8.3,0.62,15.44,1.16,21.42,1.62c6.15,0.48,11.12,0.96,14.79,1.44l8.8,1.05c-0.05,1.62-0.2,3.34-0.45,5.1
		c-0.32,2.28-0.79,4.7-1.41,7.17c-6.55,23.87-21.46,50.28-44.32,78.53c-7.41-11.44-11.17-26.83-11.17-45.78
		C192.42,212.72,192.54,209.75,192.77,206.92z M229.88,157.02c-5.71-0.81-11.25-1.51-16.51-2.1c6.16-6.24,12.65-9.4,19.32-9.4
		c4.31,0,7.88,1.4,10.92,4.29c2.63,2.51,4.49,6,5.52,10.42C242.51,158.96,236.04,157.89,229.88,157.02z M254.18,184.46
		c1.14-4.58,1.86-8.9,2.13-12.89c3.82,0.56,7.19,1.08,10.05,1.57c2.47,0.42,4.58,0.81,6.4,1.17c-17.27,35.75-33.5,63.25-48.28,81.81
		c-2.22,3.01-4.54,5.86-6.9,8.45c-2.04,2.24-4.09,4.42-6.13,6.48c-0.76-0.78-1.53-1.58-2.28-2.4c-0.86-0.92-1.7-1.84-2.51-2.75
		C231.63,235.23,247.62,207.84,254.18,184.46z M331.69,210.23c-3.04,3.99-6.14,7.78-9.22,11.26c-1.32,1.49-2.65,2.95-4,4.4
		c2.48-5.83,5.09-11.6,7.8-17.24c3.83-7.97,7.95-15.82,12.25-23.3c4.24-7.13,6.91-8.2,8.13-8.2c0.4,0,1.16,0,1.16,2.36
		c0,0.86-0.32,2.73-1.83,6.7C343.46,192.65,338.65,200.74,331.69,210.23z M148.52,154.85c0.79-0.43,1.57-0.86,2.35-1.3l0.96-0.53
		c1.5,1.11,2.87,2.18,4.12,3.38c-2.87,0.68-5.55,1.48-8.05,2.39l-1.76-2.86C147.01,155.64,147.8,155.24,148.52,154.85z
		 M139.04,115.83c0.01,0.02,0.03,0.03,0.04,0.05c-0.01,0.02-0.02,0.04-0.03,0.06l-0.88,0.53l0-0.03L139.04,115.83z M137.84,116.68
		L137.84,116.68l-0.02,0.02L137.84,116.68z M131.9,155.92c0.23,0.21,0.53,0.38,0.91,0.44c0.28,0.04,0.53,0.02,0.75-0.05
		c0.22,0.37,0.53,0.67,0.91,0.88c0.72,0.4,1.58,0.41,2.35,0.03c0.32-0.16,0.62-0.36,0.9-0.61c0.03,0.03,0.05,0.07,0.08,0.1
		c0.51,0.64,1.06,0.87,1.57,0.92c0.91,1.15,1.88,2.32,2.93,3.53c-3.97,1.96-7.33,4.3-10.1,7c0.17-1.17,0.25-2.27,0.22-3.32
		c-0.05-1.99-0.56-3.79-1.5-5.38c0,0-0.01-0.02-0.03-0.05c-0.15-0.53-0.29-1.06-0.44-1.6C130.93,157.23,131.43,156.6,131.9,155.92z"
		/>
	<path d="M646.81,234.3c0.42,0.13,0.87,0.07,1.24-0.17c0.37-0.24,0.62-0.62,0.68-1.06c0.41-2.85,0.29-4.09-0.06-4.84
		c-0.35-1.38-1.57-2.52-3.72-3.5c-6.44-2.81-17.04-4.23-31.5-4.23c-4.03,0-8.28,0.12-12.64,0.36c-4.32,0.24-8.87,0.53-13.56,0.85
		c-11.74,0.96-21.49,2.07-28.97,3.27c-7.55,1.22-13.13,2.5-16.65,3.84c-1.49,0.64-2.81,2.23-4.03,4.85
		c-1.2,2.59-1.51,4.89-0.92,6.86c0.22,0.74,0.97,1.2,1.73,1.04l11.47-2.29c4.4-0.88,9.49-1.98,15.13-3.27
		c4.94-1.11,9.44-2.09,13.37-2.89c3.86-0.79,7.27-1.35,10.18-1.67c4.29-0.63,8.76-1.12,13.29-1.44c4.14-0.29,8.49-0.45,12.94-0.47
		c0.04,0.44,0.06,0.87,0.06,1.27v2.78c0,12.93-6.2,23.72-18.42,32.08c-12.56,8.64-28.2,13.02-46.47,13.02
		c-13.81,0-25.17-2.69-33.74-7.99c-9.59-5.88-14.25-13.51-14.25-23.35c0-14.23,5.81-27.84,17.26-40.48
		c6.65,2.54,13.98,3.83,21.8,3.83c5.27,0,10.03-0.59,14.17-1.75c4.51-1.26,7.2-2.95,8.18-5.12c0.39-0.78,0.46-1.5,0.2-2.12
		c-0.17-0.4-0.46-0.74-0.84-0.96c-0.65-0.68-1.31-0.76-1.78-0.7c-0.52,0.07-1.24,0.39-1.72,1.5c-1.06,1.83-4.55,3.99-15.07,3.99
		c-7.43,0-14.17-1.21-20.08-3.59c12.42-12.19,28.25-21.36,47.09-27.29c6.86-2.18,14.91-4.09,23.94-5.66
		c1.98,1.04,3.93,2.36,5.79,3.93c0.03,0.03,0.06,0.05,0.09,0.07c2.19,1.56,4.32,3.35,6.35,5.29c2.04,1.97,4.11,4.24,6.13,6.72
		c4.6,5.98,6.93,11.03,6.93,15.02c0,1.43-0.37,2.71-1.12,3.88c-1.1,1.12-1.54,1.87-1.54,2.64v0.24c0,0.64,0.3,1.21,0.82,1.55
		c0.9,0.59,2.1,0.43,4.59-0.63c7.04-2.3,13.19-5.55,18.26-9.64c6.95-5.42,10.48-11.02,10.48-16.64c0-5.48-2.14-10.91-6.35-16.13
		c-5.27-6.79-14.52-10.24-27.5-10.24c-8.33,0-18.34,1.43-29.78,4.26c-14.31-6.83-28.49-10.3-42.18-10.3
		c-5.73,0-11.26,0.71-16.45,2.1c-5.21,1.41-10.2,3.71-14.82,6.85c-9.41,6.38-14.18,14.28-14.18,23.45c0,7.94,2.94,14.49,8.74,19.48
		c-11.73,13.12-17.67,27.68-17.67,43.3c0,14.78,5.17,25.91,15.33,33.07c8.76,6.61,20.76,9.96,35.67,9.96
		c19.47,0,38.4-4.85,56.25-14.43c18.46-10.05,27.83-21.46,27.83-33.91c0-3.49-0.78-6.53-2.31-9.08c3.29,0.33,6.55,0.79,9.71,1.38
		C638.46,232,642.71,233.04,646.81,234.3z M577.02,162.38c-2.48,0.78-5.16,1.59-7.98,2.42c-22.77,7.43-41.16,17.88-54.7,31.06
		c-4.6-3.8-6.84-8.61-6.84-14.67c0-7.4,4.19-13.62,12.78-18.99c7.94-4.67,16.29-7.04,24.83-7.04c12.79,0,24.59,2.09,35.14,6.22
		C579.2,161.71,578.12,162.04,577.02,162.38z M621.17,166.04c5.24,0,21.2,0,21.2,10.81c0,3.32-2.4,7.87-7.15,13.54
		c-3.24,3.96-6.4,7.06-9.43,9.26c0.01-0.28,0.02-0.55,0.02-0.82c0-4.81-2.13-10.14-6.3-15.82c-1.82-2.64-3.82-5.1-5.95-7.31
		c-2.17-2.25-4.62-4.23-7.27-5.89l-3.46-2.22C609.68,166.55,615.84,166.04,621.17,166.04z"/>
	<path d="M714.61,216.98c5.33,0,8.26-3.19,8.26-8.99c0-2.36-0.92-6.33-7.05-6.33c-1.95,0-3.73,0.68-5.28,2.02
		c-2.14,1.57-3.22,3.59-3.22,6c0,1.85,0.76,3.55,2.25,5.04C711.06,216.23,712.76,216.98,714.61,216.98z"/>
	<path d="M1035.98,216.98c5.33,0,8.26-3.19,8.26-8.99c0-2.36-0.92-6.33-7.05-6.33c-1.95,0-3.73,0.68-5.28,2.02
		c-2.14,1.58-3.22,3.59-3.22,6c0,1.85,0.76,3.55,2.25,5.04C1032.42,216.23,1034.12,216.98,1035.98,216.98z"/>
	<path d="M1154.28,253.82c-0.77,0-1.89,0.26-2.86,1.52c-2.93,3.38-6.2,6.15-9.73,8.22c-3.58,2.1-7.44,3.71-11.44,4.79
		c-2.44,0.61-5.08,0.92-7.85,0.92c-0.95,0-1.88-0.04-2.77-0.12c-0.44-0.04-0.88-0.08-1.32-0.13c0.03-0.41,0.04-0.87,0.04-1.39
		c0-0.03,0-0.07,0-0.1c-0.18-2.68-1.59-6.14-4.3-10.55c-2.27-3.93-3.42-7.09-3.42-9.39c0-1.29,0.22-2.69,0.64-4.08
		c3.7-10.33,10.59-16.26,21.06-18.1c0.07-0.01,0.14-0.03,0.21-0.05c0.34-0.11,0.67-0.17,0.98-0.17h1.21c3.57,0,3.57,1.38,3.57,2.12
		c0,1.17-0.49,2.69-1.46,4.51c-0.63,0.88-0.95,1.8-0.95,2.73c0,0.93,0.29,1.62,0.87,2.07c0.3,0.24,0.96,0.6,1.96,0.35
		c1.01-0.25,2.05-1.12,3.3-2.78c2.26-3.3,3.4-6.75,3.4-10.26c0-4.21-1.89-9.23-10.92-9.23c-3.04,0-6.62,0.68-10.67,2.03
		c-14.74,5.53-22.22,14.53-22.22,26.76c0,5.3,1.72,10.31,5.14,14.92c1.48,1.93,2.53,4.03,3.13,6.28c0.18,0.61,0.33,1.21,0.43,1.79
		c-3.39-1.62-6.23-3.82-8.46-6.55c-0.04-0.04-0.07-0.08-0.11-0.12c-0.14-0.14-0.34-0.29-0.6-0.41c0.84-0.9,1.29-1.96,1.29-3.11
		c0-1.45-0.48-2.36-1.43-2.71c-1.45-0.54-2.81,0.72-4.07,2.18c-1.7,1.69-3.82,3.5-6.32,5.37c-2.51,1.88-5.38,3.71-8.52,5.44
		c-7.3,4.04-13.4,6.09-18.11,6.09c-5.47,0-7.92-2.67-7.92-8.64c0-0.79,0.04-1.59,0.12-2.4c0.05-0.58,0.12-1.23,0.22-1.94
		c8.5-2.22,15.25-6.28,20.1-12.1c2.78-3.48,4.19-7.04,4.19-10.59c0-5.79-3.19-8.99-8.98-8.99c-4.08,0-8.56,2.25-13.35,6.69
		c-3.82,3.65-7.09,8.31-9.73,13.84c-1.18,2.46-2.07,4.71-2.73,6.79c-0.13,0.13-0.25,0.27-0.38,0.42
		c-9.32,9.78-17.08,14.75-23.06,14.75c-2.36,0-5.5-0.87-5.5-8.4c0-0.79,0.04-1.59,0.12-2.4c0.07-0.82,0.19-1.62,0.34-2.37
		c0.01-0.06,0.02-0.13,0.03-0.2c0.14-2.18,1.38-5.47,3.66-9.73l6.04-10.38c0.08-0.14,0.14-0.3,0.17-0.46l0.24-1.21
		c0.02-0.1,0.03-0.19,0.03-0.29c0-1.1-0.5-3.67-5.12-3.67c-3.76,0-6.3,1.13-7.56,3.37c-5.23,7.71-8.18,14.11-8.95,19.43
		c-0.56,0.36-1.13,0.88-1.73,1.58c-2.52,2.68-4.96,5.04-7.25,7.01c-2.25,1.94-4.49,3.55-6.67,4.8c-3.77,2.26-6.92,3.41-9.37,3.41
		c-1.37,0-5.02,0-5.02-8.16c0-8,2.25-16.21,6.69-24.39c22.36-19.18,36.01-36.25,40.55-50.68c1.02-2.88,1.53-5.57,1.53-7.98
		c0-8.03-4.87-9.23-7.78-9.23c-8.72,0-18.55,10.37-30.05,31.69c-3.2,5.92-6.06,11.55-8.49,16.74c-2.25,4.81-4.25,9.38-5.93,13.61
		l-19.22-0.19c16.63-14.92,27.78-28,33.19-38.96c1.85-4.05,2.79-7.91,2.79-11.49c0-10.02-4.49-12.12-8.26-12.12
		c-2.86,0-5.81,1.57-8.98,4.74c-5.9,5.41-12.43,14.98-19.38,28.41c-1.29,2.42-3.13,6.22-5.47,11.31
		c-2.25,4.88-5.05,10.99-8.41,18.32h-9.66c-4.4,0-4.88,2.4-4.88,3.43v0.24c0,0.05,0,0.1,0.01,0.15c0.24,2.42,2.48,3.84,6.66,4.24
		c0.07,0.01,0.13,0.01,0.2,0.01l4.03-0.15c-2.72,5.61-5.59,11.33-8.56,17.08c-1.51,1.37-3.13,2.72-4.87,4.03
		c-2.52,1.89-5.39,3.72-8.55,5.46c-7.14,4.19-13.06,6.31-17.59,6.31c-3.01,0-4.29-1.43-4.29-4.78c0-0.6,0.04-1.18,0.11-1.75
		c0.07-0.57,0.18-1.16,0.33-1.75c0.01-0.05,0.02-0.09,0.03-0.14c0.3-1.95,1.48-5.14,3.52-9.54c1.72-4.06,3.13-6.9,4.24-8.48
		c0.95-1.52,1.43-3.01,1.43-4.42c0-3.87-2.13-6.09-5.85-6.09c-0.95,0-2.37,0.24-4.47,0.77c-0.05,0.01-0.1,0.03-0.15,0.05
		c-1.6,0.58-2.97,0.88-4.08,0.88c-3.02,0-3.32-1.3-3.33-2.54c5.36-6.43,7.97-11.66,7.97-16c0-4.02-2.22-6.33-6.09-6.33
		c-2.83,0-5.4,1.22-7.62,3.62c-2.35,2.53-3.54,5.96-3.54,10.2c0,0.72,0.04,1.47,0.13,2.22c0.08,0.77,0.21,1.58,0.38,2.42l0.38,1.89
		c-4.99,9.23-11.02,17.12-17.95,23.44c-0.67,0.46-1.17,0.95-1.51,1.47c-1.01,0.85-2.1,1.73-3.29,2.61
		c-2.51,1.88-5.38,3.71-8.52,5.44c-7.3,4.04-13.4,6.09-18.11,6.09c-5.47,0-7.92-2.67-7.92-8.64c0-0.79,0.04-1.59,0.12-2.4
		c0.05-0.58,0.12-1.23,0.22-1.94c8.5-2.22,15.25-6.28,20.1-12.1c2.78-3.48,4.19-7.04,4.19-10.59c0-5.79-3.19-8.99-8.98-8.99
		c-4.08,0-8.56,2.25-13.35,6.69c-3.82,3.65-7.09,8.31-9.73,13.84c-1.17,2.46-2.07,4.7-2.72,6.78c-0.13,0.14-0.26,0.29-0.39,0.44
		c-2.53,2.69-5,5.04-7.35,7c-2.33,1.94-4.61,3.56-6.76,4.79c-2.98,1.64-5.74,2.47-8.21,2.47c-3.24,0-6.95-0.96-6.95-8.4
		c0-5.36,2.32-12.49,6.89-21.2h15.52c5,0,6.42-0.13,7.03-0.27c1.7-0.23,6.54-0.94,6.54-4.37c0-1.04-0.55-2.47-3.2-3.35
		c-0.15-0.05-0.31-0.08-0.47-0.08h-20.88c3.71-5.62,6.97-10.56,9.81-14.81c3.18-4.76,5.82-8.62,7.87-11.46
		c0.68-0.73,0.83-1.45,0.83-1.93c0-1.68-1.01-3.67-5.85-3.67c-3.57,0-6.66,1.1-9.19,3.26c-0.11,0.09-0.21,0.2-0.28,0.32
		c-1.77,2.74-3.43,5.32-4.96,7.74c-1.53,2.41-2.88,4.62-4.01,6.56c-2.09,3.54-3.81,6.61-5.11,9.13c-1.04,2.01-1.87,3.63-2.49,4.86
		l-3.5,0l-2.85,0.16c-0.08-0.03-0.14-0.06-0.21-0.08c-0.15-0.05-0.31-0.08-0.47-0.08h-20.88c3.71-5.62,6.98-10.56,9.81-14.81
		c3.16-4.74,5.81-8.6,7.88-11.46c0.68-0.73,0.83-1.45,0.83-1.93c0-1.68-1.01-3.67-5.85-3.67c-3.57,0-6.66,1.1-9.19,3.26
		c-0.11,0.09-0.2,0.2-0.28,0.32c-1.78,2.74-3.43,5.32-4.96,7.74c-1.53,2.41-2.88,4.62-4.01,6.56c-2.11,3.56-3.83,6.63-5.11,9.13
		c-1.04,2.01-1.87,3.63-2.49,4.86l-3.5,0l-4.26,0.24c-4.25,0-4.88,2-4.88,3.19v0.48c0,1.49,0.67,4.07,5.18,4.63
		c0.36,0.04,0.71-0.04,1-0.23c0.55-0.01,1.4-0.02,2.43-0.08c-1.88,4.74-3.12,9.18-3.76,13.3c-0.73,0.33-1.47,0.95-2.26,1.87
		c-9.32,9.78-17.08,14.75-23.06,14.75c-2.36,0-5.5-0.87-5.5-8.4c0-0.77,0.04-1.57,0.12-2.4c0.07-0.83,0.19-1.62,0.34-2.38
		c0.01-0.06,0.02-0.13,0.03-0.2c0.14-2.18,1.38-5.47,3.66-9.73l6.04-10.38c0.08-0.14,0.14-0.3,0.17-0.46l0.24-1.21
		c0.02-0.1,0.03-0.2,0.03-0.29c0-1.1-0.5-3.67-5.12-3.67c-3.75,0-6.3,1.13-7.56,3.37c-5.23,7.71-8.18,14.12-8.95,19.43
		c-0.56,0.36-1.13,0.88-1.73,1.58c-2.52,2.68-4.99,5.03-7.35,7c-2.33,1.95-4.62,3.56-6.81,4.82c-3.77,2.26-6.92,3.41-9.37,3.41
		c-1.31,0-4.78,0-4.78-8.16c0-8,2.25-16.21,6.69-24.39c22.36-19.18,36.01-36.25,40.55-50.68c1.02-2.88,1.54-5.57,1.54-7.98
		c0-8.03-5.02-9.23-8.02-9.23c-8.56,0-18.31,10.37-29.8,31.68c-4.35,7.9-8.03,15.29-10.93,21.98c-2.92,6.72-5.21,12.91-6.83,18.44
		c-1.14,4.22-2,8-2.56,11.24c-0.58,3.28-0.87,6.13-0.87,8.47c0,11.97,6.95,14.77,12.78,15.02c0,0,0,0,0,0
		c0.24,0.01,0.48,0.01,0.72,0.01c7.79,0,16.52-4.91,26.54-14.91c0.34,4.71,1.63,8.36,3.9,10.84c2.38,2.61,5.8,3.98,10.14,4.05
		c0.23,0.01,0.47,0.01,0.7,0.01c7.87,0,16.7-5.01,26.88-15.25c0.02,0.28,0.03,0.55,0.05,0.83c0.08,1,0.21,2.08,0.37,3.23
		c0,0.04,0.01,0.08,0.02,0.12c1.59,7.07,6.17,10.9,13.26,11.07c0,0,0.01,0,0.01,0c0.12,0,0.24,0,0.37,0
		c7.95,0,16.89-5.03,27.21-15.28c0.02,0.29,0.03,0.58,0.05,0.86c0.08,0.99,0.21,2.08,0.37,3.23c0,0.04,0.01,0.08,0.02,0.12
		c1.59,7.07,6.18,10.9,13.26,11.07c0,0,0.01,0,0.01,0c0.12,0,0.24,0,0.37,0c7.26,0,15.34-4.19,24.55-12.72
		c0.64,9.75,5.94,14.89,15.44,14.89c6.81,0,14.69-2.33,23.39-6.93c4.08-2.12,7.6-4.32,10.49-6.54c2.84-2.2,5.2-4.39,7.02-6.52
		c6.43-5.58,11.63-11.52,15.46-17.74c0.63,1.37,1.59,2.64,2.88,3.79c1.71,1.52,3.52,2.44,5.41,2.75c-4,7.76-6.03,14.33-6.03,19.55
		c0,11.02,6.72,13.33,12.37,13.33c3.06,0,6.72-0.76,10.88-2.26c4.93-1.75,10.6-4.89,16.95-9.4c-3.67,6.8-7.52,13.67-11.49,20.48
		c-2.99,4.89-6.16,9.34-9.41,13.22c-3.21,3.84-6.67,7.22-10.29,10.05c-7.1,5.71-14.25,8.6-21.27,8.6c-4.4,0-7.66-1.33-9.98-4.08
		c-2.19-2.48-3.25-5.31-3.25-8.67c0-3.48,0.96-6.13,2.94-8.11c0.09-0.09,0.16-0.19,0.23-0.29c0.67-1.11,0.94-1.83,0.94-2.46
		c0-1.47-0.99-2.47-2.47-2.47c-0.95,0-1.82,0.5-2.58,1.48c-3.45,3.48-5.2,7.71-5.2,12.58c0,4.73,1.77,8.91,5.32,12.46
		c3.97,3.62,9.11,5.46,15.25,5.46c11.07,0,20.8-3.11,28.89-9.22c7.06-5.09,13.7-12.97,19.76-23.44
		c12.71-23.53,22.32-41.79,28.59-54.29c6.34-0.15,11.45-0.22,15.6-0.22c3.35,0,6.04-0.04,8.15-0.13c-0.18,0.61-0.42,1.24-0.7,1.89
		c-0.03,0.07-0.06,0.14-0.08,0.22c-1.14,4.22-2,8-2.56,11.24c-0.58,3.28-0.87,6.13-0.87,8.47c0,12.42,7.38,15.02,13.57,15.02
		c7.64,0,16.33-4.91,26.48-14.93c0.34,4.73,1.63,8.39,3.9,10.88c2.38,2.61,5.79,3.98,10.14,4.05c0.23,0.01,0.47,0.01,0.7,0.01
		c7.18,0,15.15-4.18,24.23-12.67c0.66,9.72,5.96,14.83,15.43,14.83c6.81,0,14.69-2.33,23.39-6.93c4.08-2.12,7.6-4.32,10.49-6.54
		c0.81-0.63,1.57-1.25,2.3-1.88c0,0.11-0.01,0.21-0.01,0.33c0,1.59,0.34,3.5,1.02,5.7c0.57,2.41,1.92,4.46,4.03,6.1
		c2.11,1.65,4.57,2.49,7.32,2.49c3.12,0,5.7-1.34,7.7-3.98c0.72,0.1,1.46,0.18,2.2,0.23c1.05,0.08,2.19,0.13,3.38,0.13
		c2.65,0,5.49-0.25,8.49-0.75c7.81-1.5,16.19-6.42,24.93-14.66c0.92-0.92,1.4-2.04,1.4-3.23
		C1156.75,254.66,1155.51,253.82,1154.28,253.82z M1070.88,243.48c-2.28,4.06-6.33,7.31-12.06,9.69c1.13-2.35,2.43-4.67,3.88-6.94
		c2.11-3.29,4.29-6.09,6.46-8.34c2.73-2.82,3.93-3.04,4.23-3.08c0,0,0.2,0.26,0.2,1.2C1073.59,237.97,1072.69,240.48,1070.88,243.48
		z M962.08,209.81l11.2-20.35c5.48-9.07,7.76-10.57,8.42-10.82c0.06,0.21,0.15,0.61,0.15,1.35c0,2.5-0.93,5.79-2.76,9.76
		c-5.06,11.17-13.37,22.72-24.75,34.42C956.97,219.17,959.57,214.36,962.08,209.81z M1015.94,177.14c0.4,0,1.16,0,1.16,2.36
		c0,1.73-0.54,3.98-1.6,6.73c-1.25,3.44-3.11,7.16-5.54,11.07c-2.47,3.98-5.49,8.32-8.97,12.92c-3.03,3.99-6.13,7.78-9.22,11.26
		c-1.31,1.48-2.65,2.95-4,4.4c2.48-5.82,5.09-11.59,7.8-17.24c3.83-7.97,8.03-15.81,12.51-23.33
		C1012.11,178.21,1014.73,177.14,1015.94,177.14z M832.09,243.48c-2.28,4.06-6.33,7.31-12.06,9.69c1.13-2.35,2.43-4.67,3.88-6.94
		c2.11-3.29,4.29-6.09,6.46-8.34c2.73-2.82,3.93-3.04,4.23-3.08c0,0,0.2,0.26,0.2,1.2C834.8,237.97,833.9,240.48,832.09,243.48z
		 M765.43,255.74c-2.52,2.68-4.99,5.03-7.35,7c-2.33,1.94-4.61,3.56-6.76,4.79c-2.98,1.64-5.74,2.47-8.21,2.47
		c-3.24,0-6.95-0.96-6.95-8.4c0-5.36,2.32-12.49,6.89-21.2h15.52c4.6,0,6.17-0.11,6.87-0.23c0.68,0.32,1.53,0.57,2.61,0.7
		c0.36,0.04,0.71-0.04,1-0.23c0.53-0.01,1.4-0.02,2.43-0.08c-1.9,4.79-3.15,9.28-3.78,13.45
		C766.91,254.29,766.16,254.86,765.43,255.74z M694.57,177.14c0.4,0,1.16,0,1.16,2.36c0,1.73-0.53,3.99-1.6,6.73
		c-1.25,3.44-3.12,7.17-5.54,11.07c-2.47,3.98-5.49,8.32-8.97,12.92c-3.05,4.01-6.15,7.8-9.23,11.26c-1.32,1.49-2.65,2.96-3.99,4.4
		c2.48-5.83,5.1-11.61,7.8-17.24c3.83-7.98,8.03-15.82,12.51-23.33C690.74,178.21,693.37,177.14,694.57,177.14z"/>
	<path d="M467.47,161.65l-21.08-11.31l-11.31-21.08c-0.26-0.48-0.76-0.79-1.31-0.79c0,0-0.01,0-0.01,0c-0.54,0-1.05,0.29-1.31,0.77
		l-11.96,21.46l-21.46,11.96c-0.48,0.27-0.77,0.77-0.77,1.32s0.31,1.05,0.79,1.31l21.08,11.31l11.31,21.08
		c0.26,0.48,0.76,0.79,1.31,0.79c0,0,0.01,0,0.01,0c0.54,0,1.05-0.29,1.31-0.77l11.96-21.46l21.46-11.96
		c0.48-0.27,0.77-0.77,0.77-1.32S467.95,161.91,467.47,161.65z"/>
	<path d="M749.91,318.26l-12.41-4.57l-5.37-13.25c-0.23-0.56-0.77-0.93-1.38-0.94c0,0-0.01,0-0.01,0c-0.6,0-1.14,0.36-1.38,0.91
		l-5.77,13.44l-12.63,4.98c-0.58,0.23-0.96,0.79-0.95,1.41c0.01,0.62,0.4,1.18,0.98,1.39l12.41,4.57l5.37,13.25
		c0.23,0.56,0.77,0.93,1.38,0.94c0,0,0.01,0,0.01,0c0.6,0,1.14-0.36,1.38-0.91l5.77-13.44l12.63-4.98c0.58-0.23,0.96-0.79,0.95-1.41
		C750.88,319.03,750.49,318.47,749.91,318.26z"/>
	<path d="M138.27,243.35l-10.91-4.01l-4.72-11.65c-0.23-0.56-0.77-0.93-1.38-0.94c-0.6-0.01-1.15,0.35-1.39,0.91l-5.07,11.82
		l-11.1,4.38c-0.58,0.23-0.96,0.79-0.95,1.41s0.4,1.18,0.98,1.39l10.91,4.01l4.72,11.65c0.23,0.56,0.77,0.93,1.38,0.94
		c0.01,0,0.01,0,0.02,0c0.6,0,1.14-0.36,1.38-0.91l5.07-11.82l11.1-4.38c0.58-0.23,0.96-0.79,0.95-1.41S138.86,243.56,138.27,243.35
		z"/>
	<path d="M1075.13,184.09l11.51,4.24l4.99,12.29c0.23,0.56,0.77,0.93,1.38,0.94c0,0,0.01,0,0.01,0c0.6,0,1.14-0.36,1.38-0.91
		l5.35-12.47l11.72-4.62c0.58-0.23,0.96-0.79,0.95-1.41c-0.01-0.62-0.4-1.18-0.98-1.39l-11.51-4.24l-4.99-12.29
		c-0.23-0.56-0.77-0.93-1.38-0.94c0,0-0.01,0-0.01,0c-0.6,0-1.14,0.36-1.38,0.91l-5.35,12.47l-11.72,4.62
		c-0.58,0.23-0.96,0.79-0.95,1.41C1074.16,183.32,1074.55,183.87,1075.13,184.09z"/>
	<path d="M748.68,157.07l21.08,11.31l11.31,21.08c0.26,0.48,0.76,0.79,1.31,0.79c0,0,0.01,0,0.01,0c0.54,0,1.04-0.29,1.31-0.77
		l11.96-21.46l21.46-11.96c0.48-0.27,0.77-0.77,0.77-1.32c0-0.55-0.31-1.05-0.79-1.31l-21.08-11.31l-11.31-21.08
		c-0.26-0.48-0.76-0.79-1.31-0.79c0,0-0.01,0-0.01,0c-0.54,0-1.04,0.29-1.31,0.77l-11.96,21.46l-21.46,11.96
		c-0.48,0.27-0.77,0.77-0.77,1.32C747.9,156.3,748.2,156.81,748.68,157.07z"/>
</g>
</svg>
